# xmcd
#
# Track frame offsets:
#	150
#	15530
#	27310
#	42050
#	57572
#	69810
#	82055
#	95892
#	109475
#	123337
#	139887
#	152280
#	165680
#	184122
#	205077
#
# Disc length: 2956 seconds
#
# Revision: 1
# Processed by: cddbd v1.5.1PL0 Copyright (c) Steve Scherf et al.
# Submitted via: audiograbber 1.83.01
#
DISCID=ca0b8a0f
DTITLE=Kimber Clayton - Good Girls Love Bad Boys
DYEAR=1998
DGENRE=Country
TTITLE0=Good Girls Love Bad Boys
TTITLE1=Bless His Heart
TTITLE2=I Know That Car
TTITLE3=The Price Of Love
TTITLE4=The Girl You Fell In Love With
TTITLE5=Ring Of Fire
TTITLE6=What Does She Have
TTITLE7=You Don't Know Her
TTITLE8=Are You Listening
TTITLE9=Real Good Thing
TTITLE10=If Wishes Were Horses
TTITLE11=Coup De Ville
TTITLE12=Slowly Slippin' Away
TTITLE13=If Wishes Were Horses (Dance Mix)
TTITLE14=Real Good Thing (Dance Mix)
EXTD=
EXTT0=
EXTT1=
EXTT2=
EXTT3=
EXTT4=
EXTT5=
EXTT6=
EXTT7=
EXTT8=
EXTT9=
EXTT10=
EXTT11=
EXTT12=
EXTT13=
EXTT14=
PLAYORDER=
